<svg width="1178" height="1280" viewBox="0 0 1178 1280" fill="none" xmlns="http://www.w3.org/2000/svg">
<path d="M290.897 269.184L639.696 567.684L359.196 915.684L290.532 996.348H388.544L646.544 675.286L887.189 882.567V777.184L290.897 269.184Z" fill="#9EA1A3"/>
<path d="M886.196 687.684L398.696 273.184H291.696L637.196 570.684L292.196 996.184H391.696L647.696 678.184L886.196 880.184V687.684Z" fill="#213371" stroke="#213371" stroke-width="10" stroke-linejoin="round"/>
<path d="M292.196 882.184V993.184L636.196 567.684L291.696 273.684V370.684L535.196 582.684L292.196 882.184Z" fill="#9EA1A3"/>
<path d="M1032.93 1146.76C1031.53 1146.77 1030.18 1146.23 1029.18 1145.25L883.033 999.631C882.325 998.921 881.834 998.025 881.616 997.046C881.398 996.068 881.461 995.048 881.8 994.104V278.349H292.313C290.996 278.351 289.726 277.862 288.75 276.979L140.91 141.319C140.126 140.604 139.576 139.668 139.334 138.634C139.092 137.6 139.169 136.517 139.555 135.528C139.941 134.539 140.617 133.689 141.495 133.092C142.373 132.495 143.411 132.179 144.473 132.184H1032.93C1034.32 132.184 1035.66 132.737 1036.64 133.722C1037.63 134.707 1038.18 136.043 1038.18 137.436V1141.64C1038.18 1142.68 1037.87 1143.7 1037.3 1144.57C1036.72 1145.44 1035.9 1146.12 1034.94 1146.53C1034.28 1146.71 1033.61 1146.79 1032.93 1146.76ZM892.258 994.013L1027.63 1128.8V142.918H158.037L294.505 267.935H887.006C887.7 267.935 888.386 268.072 889.027 268.339C889.667 268.606 890.248 268.997 890.736 269.49C891.225 269.982 891.611 270.567 891.872 271.209C892.133 271.852 892.264 272.54 892.258 273.233V994.013Z" fill="#213371"/>
<path d="M1033.11 1141.97L956.196 1066.18L220.196 1069.18L212.696 452.183L211.696 233.183L213.196 207.183L145.696 145.683L144.656 1142.29H1033.11H1033.38L1033.11 1141.97Z" fill="#D63226"/>
<path d="M958.421 1067.36L883.533 997.184H287.195V602.684V500.184L287.195 275.684L221.195 216.184L217.695 1067.68H958.421H958.695L958.421 1067.36Z" fill="#1E9871"/>
<path d="M1033.38 1147.54H144.656C143.948 1147.54 143.248 1147.4 142.596 1147.12C141.944 1146.85 141.354 1146.44 140.86 1145.94C140.366 1145.43 139.979 1144.83 139.721 1144.17C139.463 1143.51 139.339 1142.81 139.358 1142.1V138.082C139.333 137.373 139.452 136.666 139.708 136.005C139.964 135.343 140.351 134.74 140.846 134.232C141.341 133.724 141.934 133.322 142.588 133.049C143.243 132.777 143.946 132.64 144.656 132.646L220.114 201.221C221.366 201.211 222.581 201.648 223.539 202.454L295.828 269.4C296.406 269.89 296.872 270.498 297.195 271.184C297.519 271.869 297.691 272.616 297.701 273.374L297.93 284.065L295.83 991.232H886.869C888.266 991.23 889.608 991.771 890.614 992.74L1036.76 1138.36L1037.08 1138.68C1037.88 1139.4 1038.44 1140.36 1038.67 1141.41C1038.91 1142.46 1038.82 1143.56 1038.41 1144.56C1038 1145.55 1037.3 1146.4 1036.39 1146.98C1035.48 1147.57 1034.42 1147.86 1033.34 1147.81L1033.38 1147.54ZM149.908 1136.99H1020.64L884.723 1001.65H290.532C289.134 1001.63 287.799 1001.07 286.815 1000.08C285.831 999.086 285.279 997.745 285.279 996.348L287.38 283.791L287.196 275.795L218.195 212.184L150.136 143.609L149.908 1136.99Z" fill="#213371"/>
<path d="M959.579 1074H217.229C216.535 1074 215.847 1073.87 215.205 1073.61C214.562 1073.35 213.978 1072.96 213.485 1072.48C212.993 1071.99 212.602 1071.41 212.335 1070.77C212.068 1070.13 211.931 1069.44 211.931 1068.75V205.729C211.946 204.715 212.252 203.726 212.813 202.881C213.373 202.035 214.164 201.369 215.093 200.96C216.021 200.551 217.047 200.417 218.049 200.574C219.051 200.731 219.987 201.173 220.745 201.846L296.195 269.676C297.137 270.64 297.676 271.926 297.704 273.273C297.731 274.62 297.244 275.927 296.343 276.927C295.441 277.928 294.192 278.548 292.849 278.66C291.507 278.773 290.172 278.37 289.116 277.533L222.481 217.559V1063.45H959.579C960.894 1063.57 962.115 1064.18 963.004 1065.15C963.893 1066.13 964.386 1067.4 964.386 1068.72C964.386 1070.04 963.893 1071.32 963.004 1072.29C962.115 1073.27 960.894 1073.88 959.579 1074Z" fill="#213371"/>
<path d="M290.532 1001.65C289.536 1001.64 288.562 1001.35 287.724 1000.81C286.885 1000.27 286.215 999.507 285.791 998.606C285.367 997.704 285.205 996.701 285.324 995.712C285.444 994.723 285.84 993.788 286.467 993.014L631.975 569.499L289.436 277.715C288.905 277.268 288.468 276.719 288.15 276.102C287.832 275.484 287.64 274.809 287.585 274.117C287.53 273.424 287.612 272.728 287.828 272.068C288.044 271.407 288.389 270.796 288.842 270.27C289.733 269.254 290.983 268.624 292.33 268.513C293.676 268.403 295.013 268.82 296.058 269.676L642.753 564.794C643.795 565.696 644.445 566.968 644.564 568.341C644.684 569.714 644.263 571.08 643.393 572.148L294.642 999.683C294.146 1000.3 293.52 1000.79 292.809 1001.13C292.098 1001.47 291.32 1001.65 290.532 1001.65Z" fill="#213371"/>
</svg>
