<svg width="2667" height="1280" viewBox="0 0 2667 1280" fill="none" xmlns="http://www.w3.org/2000/svg">
<rect width="2667" height="1280" fill="#213371"/>
<path d="M292.5 368V993H886.5V880.5L292.5 368Z" fill="white"/>
<path d="M1032.73 1146.57C1031.33 1146.58 1029.99 1146.04 1028.99 1145.07L882.837 999.448C882.13 998.737 881.638 997.841 881.42 996.863C881.202 995.884 881.266 994.864 881.604 993.921V278.166H292.117C290.8 278.167 289.53 277.679 288.554 276.795L140.715 141.135C139.93 140.42 139.38 139.484 139.138 138.45C138.896 137.416 138.973 136.333 139.359 135.344C139.745 134.355 140.421 133.506 141.299 132.909C142.177 132.312 143.215 131.995 144.277 132H1032.73C1034.12 132 1035.46 132.553 1036.45 133.539C1037.43 134.524 1037.98 135.86 1037.98 137.253V1141.46C1037.98 1142.5 1037.68 1143.52 1037.1 1144.39C1036.52 1145.26 1035.7 1145.94 1034.74 1146.34C1034.09 1146.53 1033.41 1146.61 1032.73 1146.57ZM892.063 993.829L1027.43 1128.62V142.734H157.842L294.309 267.751H886.81C887.504 267.751 888.191 267.889 888.831 268.156C889.471 268.422 890.052 268.813 890.541 269.306C891.029 269.799 891.415 270.383 891.676 271.026C891.937 271.668 892.069 272.356 892.063 273.05V993.829Z" fill="white"/>
<path d="M290.701 269L639.5 567.5L359 915.5L290.336 996.165H388.348L646.348 675.103L886.993 882.384V777L290.701 269Z" fill="#9EA1A3"/>
<path d="M292 882V993L636 567.5L291.5 273.5V370.5L535 582.5L292 882Z" fill="#9EA1A3"/>
<path d="M1032.92 1141.78L956 1066L220 1069L212.5 452L211.5 233L213 207L145.5 145.5L144.46 1142.1H1032.92H1033.19L1032.92 1141.78Z" fill="#D63226"/>
<path d="M958.226 1067.18L883.337 997H287V602.5V500L287 275.5L221 216L217.5 1067.5H958.226H958.5L958.226 1067.18Z" fill="#1E9871"/>
<path d="M1033.19 1147.35H144.46C143.753 1147.35 143.053 1147.21 142.401 1146.94C141.749 1146.66 141.159 1146.26 140.665 1145.75C140.171 1145.25 139.784 1144.65 139.526 1143.99C139.268 1143.33 139.144 1142.63 139.162 1141.92V137.898C139.138 137.189 139.257 136.483 139.513 135.821C139.768 135.16 140.155 134.557 140.65 134.049C141.146 133.541 141.738 133.138 142.393 132.866C143.048 132.593 143.751 132.456 144.46 132.463L219.918 201.038C221.171 201.027 222.386 201.464 223.344 202.271L295.633 269.216C296.211 269.706 296.677 270.314 297 271C297.323 271.686 297.495 272.432 297.505 273.19L297.735 283.881L295.634 991.049H886.674C888.07 991.047 889.413 991.587 890.419 992.556L1036.57 1138.17L1036.89 1138.49C1037.69 1139.22 1038.24 1140.17 1038.48 1141.22C1038.72 1142.28 1038.62 1143.38 1038.22 1144.37C1037.81 1145.37 1037.1 1146.22 1036.19 1146.8C1035.29 1147.38 1034.22 1147.67 1033.14 1147.63L1033.19 1147.35ZM149.713 1136.8H1020.45L884.527 1001.46H290.336C288.939 1001.45 287.603 1000.89 286.62 999.895C285.636 998.903 285.084 997.562 285.084 996.165L287.185 283.607L287.001 275.611L218 212L149.941 143.425L149.713 1136.8Z" fill="white"/>
<path d="M959.383 1073.81H217.032C216.339 1073.82 215.651 1073.69 215.008 1073.43C214.366 1073.17 213.781 1072.78 213.289 1072.29C212.796 1071.8 212.405 1071.22 212.139 1070.58C211.872 1069.94 211.734 1069.26 211.734 1068.56V205.545C211.75 204.531 212.056 203.543 212.616 202.697C213.177 201.852 213.968 201.185 214.896 200.776C215.825 200.367 216.851 200.233 217.853 200.391C218.855 200.548 219.791 200.989 220.549 201.663L295.999 269.493C296.941 270.456 297.48 271.742 297.508 273.089C297.535 274.436 297.048 275.743 296.146 276.744C295.244 277.745 293.995 278.364 292.653 278.477C291.31 278.589 289.976 278.186 288.92 277.349L222.285 217.376V1063.26H959.383C960.697 1063.39 961.919 1063.99 962.808 1064.97C963.697 1065.95 964.189 1067.22 964.189 1068.54C964.189 1069.86 963.697 1071.13 962.808 1072.11C961.919 1073.08 960.697 1073.69 959.383 1073.81Z" fill="white"/>
<path d="M290.336 1001.46C289.34 1001.45 288.367 1001.16 287.529 1000.62C286.69 1000.09 286.02 999.323 285.596 998.422C285.171 997.521 285.01 996.518 285.129 995.529C285.249 994.54 285.645 993.604 286.272 992.83L631.779 569.315L289.24 277.532C288.709 277.084 288.272 276.536 287.955 275.918C287.637 275.3 287.445 274.626 287.39 273.933C287.335 273.241 287.417 272.544 287.633 271.884C287.849 271.224 288.193 270.613 288.647 270.087C289.537 269.071 290.788 268.441 292.135 268.33C293.481 268.219 294.818 268.636 295.863 269.493L642.558 564.61C643.6 565.512 644.249 566.785 644.369 568.158C644.488 569.531 644.068 570.896 643.197 571.964L294.447 999.499C293.951 1000.11 293.325 1000.61 292.614 1000.95C291.902 1001.29 291.125 1001.46 290.336 1001.46Z" fill="white"/>
<path d="M886 687.5L398.5 273H291.5L637 570.5L292 996H391.5L647.5 678L886 880V687.5Z" fill="#213371" stroke="white" stroke-width="10" stroke-linejoin="round"/>
<path d="M1187.87 302.011V281.727H1367.17V302.011H1288.81V529H1266.23V302.011H1187.87ZM1386.07 529H1362.41L1452.36 281.727H1476.51L1566.46 529H1542.79L1465.28 311.067H1463.59L1386.07 529ZM1403.1 434.22H1525.77V454.504H1403.1V434.22ZM1605.44 529V281.727H1685.24C1702.79 281.727 1717.44 284.907 1729.19 291.266C1741.02 297.544 1749.92 306.277 1755.88 317.466C1761.91 328.574 1764.93 341.332 1764.93 355.74C1764.93 370.148 1761.91 382.866 1755.88 393.893C1749.92 404.921 1741.07 413.534 1729.31 419.732C1717.56 425.929 1702.99 429.028 1685.61 429.028H1617.63V408.382H1685C1697.88 408.382 1708.59 406.249 1717.12 401.983C1725.73 397.717 1732.13 391.64 1736.32 383.751C1740.58 375.863 1742.72 366.526 1742.72 355.74C1742.72 344.954 1740.58 335.536 1736.32 327.487C1732.05 319.357 1725.61 313.079 1717 308.652C1708.47 304.225 1697.68 302.011 1684.64 302.011H1628.01V529H1605.44ZM1714.46 417.438L1775.31 529H1749.24L1688.99 417.438H1714.46ZM1816.53 529V281.727H1839.11V508.716H1956.95V529H1816.53ZM2004.38 529V281.727H2147.82V302.011H2026.96V395.101H2140.21V415.385H2026.96V508.716H2150.23V529H2004.38ZM2206.72 281.727L2275.18 389.064H2276.74L2345.2 281.727H2371.89L2292.32 405.364L2371.89 529H2345.2L2276.74 422.871H2275.18L2206.72 529H2180.03L2260.81 405.364L2180.03 281.727H2206.72ZM1202.84 940V692.727H1225.42V919.716H1343.26V940H1202.84ZM1342.85 713.011V692.727H1522.15V713.011H1443.79V940H1421.21V713.011H1342.85ZM1642.02 940H1569.58V692.727H1646.37C1669.95 692.727 1690.11 697.637 1706.86 707.457C1723.68 717.277 1736.56 731.364 1745.49 749.716C1754.43 768.068 1758.89 790.083 1758.89 815.76C1758.89 841.679 1754.31 863.935 1745.13 882.528C1736.03 901.042 1722.75 915.249 1705.29 925.149C1687.9 935.05 1666.81 940 1642.02 940ZM1592.15 919.716H1640.69C1661.94 919.716 1679.73 915.53 1694.06 907.159C1708.39 898.788 1719.13 886.835 1726.29 871.3C1733.46 855.765 1737.04 837.251 1737.04 815.76C1736.96 794.429 1733.42 776.077 1726.42 760.703C1719.49 745.329 1709.19 733.537 1695.51 725.327C1681.9 717.116 1665.08 713.011 1645.04 713.011H1592.15V919.716Z" fill="white"/>
</svg>
