<svg width="1178" height="1280" viewBox="0 0 1178 1280" fill="none" xmlns="http://www.w3.org/2000/svg">
<g clip-path="url(#clip0_9323_23)">
<path d="M292.5 368V993H886.5V880.5L292.5 368Z" fill="white"/>
<path d="M1032.73 1146.57C1031.33 1146.58 1029.99 1146.04 1028.99 1145.07L882.837 999.448C882.13 998.737 881.638 997.841 881.42 996.863C881.202 995.884 881.266 994.864 881.604 993.921V278.166H292.117C290.8 278.167 289.53 277.679 288.554 276.795L140.715 141.135C139.93 140.42 139.38 139.484 139.138 138.45C138.896 137.416 138.973 136.333 139.359 135.344C139.745 134.355 140.421 133.506 141.299 132.909C142.177 132.312 143.215 131.995 144.277 132H1032.73C1034.12 132 1035.46 132.553 1036.45 133.539C1037.43 134.524 1037.98 135.86 1037.98 137.253V1141.46C1037.98 1142.5 1037.68 1143.52 1037.1 1144.39C1036.52 1145.26 1035.7 1145.94 1034.74 1146.34C1034.09 1146.53 1033.41 1146.61 1032.73 1146.57ZM892.063 993.829L1027.43 1128.62V142.734H157.842L294.309 267.751H886.81C887.504 267.751 888.191 267.889 888.831 268.156C889.471 268.422 890.052 268.813 890.541 269.306C891.029 269.799 891.415 270.383 891.676 271.026C891.937 271.668 892.069 272.356 892.063 273.05V993.829Z" fill="white"/>
<path d="M290.701 269L639.5 567.5L359 915.5L290.336 996.165H388.348L646.348 675.103L886.993 882.384V777L290.701 269Z" fill="#9EA1A3"/>
<path d="M292 882V993L636 567.5L291.5 273.5V370.5L535 582.5L292 882Z" fill="#9EA1A3"/>
<path d="M1032.92 1141.78L956 1066L220 1069L212.5 452L211.5 233L213 207L145.5 145.5L144.46 1142.1H1032.92H1033.19L1032.92 1141.78Z" fill="#D63226"/>
<path d="M958.226 1067.18L883.337 997H287V602.5V500L287 275.5L221 216L217.5 1067.5H958.226H958.5L958.226 1067.18Z" fill="#1E9871"/>
<path d="M1033.19 1147.35H144.46C143.753 1147.35 143.052 1147.21 142.4 1146.94C141.749 1146.66 141.158 1146.26 140.665 1145.75C140.171 1145.25 139.783 1144.65 139.525 1143.99C139.267 1143.33 139.144 1142.63 139.162 1141.92V137.898C139.137 137.189 139.257 136.483 139.512 135.821C139.768 135.16 140.155 134.557 140.65 134.049C141.145 133.541 141.738 133.138 142.393 132.866C143.048 132.593 143.751 132.456 144.46 132.463L219.918 201.038C221.17 201.027 222.385 201.464 223.344 202.271L295.632 269.216C296.211 269.706 296.677 270.314 297 271C297.323 271.686 297.495 272.432 297.505 273.19L297.735 283.881L295.634 991.049H886.674C888.07 991.047 889.413 991.587 890.419 992.556L1036.57 1138.17L1036.89 1138.49C1037.69 1139.22 1038.24 1140.17 1038.48 1141.22C1038.72 1142.28 1038.62 1143.38 1038.22 1144.37C1037.81 1145.37 1037.1 1146.22 1036.19 1146.8C1035.29 1147.38 1034.22 1147.67 1033.14 1147.63L1033.19 1147.35ZM149.712 1136.8H1020.45L884.527 1001.46H290.336C288.939 1001.45 287.603 1000.89 286.619 999.895C285.636 998.903 285.084 997.562 285.084 996.165L287.185 283.607L287 275.611L218 212L149.941 143.425L149.712 1136.8Z" fill="white"/>
<path d="M959.383 1073.81H217.033C216.339 1073.82 215.651 1073.69 215.009 1073.43C214.366 1073.17 213.782 1072.78 213.289 1072.29C212.797 1071.8 212.406 1071.22 212.139 1070.58C211.872 1069.94 211.735 1069.26 211.735 1068.56V205.545C211.75 204.531 212.056 203.543 212.617 202.697C213.177 201.852 213.968 201.185 214.897 200.776C215.825 200.367 216.851 200.233 217.853 200.391C218.855 200.548 219.791 200.989 220.549 201.663L295.999 269.493C296.941 270.456 297.481 271.742 297.508 273.089C297.535 274.436 297.049 275.743 296.147 276.744C295.245 277.745 293.996 278.364 292.653 278.477C291.311 278.589 289.976 278.186 288.92 277.349L222.285 217.376V1063.26H959.383C960.698 1063.39 961.919 1063.99 962.808 1064.97C963.697 1065.95 964.19 1067.22 964.19 1068.54C964.19 1069.86 963.697 1071.13 962.808 1072.11C961.919 1073.08 960.698 1073.69 959.383 1073.81Z" fill="white"/>
<path d="M290.336 1001.46C289.34 1001.45 288.367 1001.16 287.528 1000.62C286.69 1000.09 286.02 999.324 285.595 998.422C285.171 997.521 285.009 996.518 285.129 995.529C285.248 994.54 285.644 993.605 286.271 992.83L631.779 569.315L289.24 277.532C288.709 277.084 288.272 276.536 287.954 275.918C287.636 275.3 287.444 274.626 287.389 273.933C287.334 273.241 287.417 272.544 287.632 271.884C287.848 271.224 288.193 270.613 288.646 270.087C289.537 269.071 290.788 268.441 292.134 268.33C293.481 268.219 294.817 268.636 295.862 269.493L642.557 564.611C643.599 565.513 644.249 566.785 644.368 568.158C644.488 569.531 644.067 570.896 643.197 571.965L294.446 999.499C293.95 1000.11 293.324 1000.61 292.613 1000.95C291.902 1001.29 291.124 1001.46 290.336 1001.46Z" fill="white"/>
<path d="M886 687.5L398.5 273H291.5L637 570.5L292 996H391.5L647.5 678L886 880V687.5Z" fill="#213371" stroke="white" stroke-width="10" stroke-linejoin="round"/>
</g>
<defs>
<clipPath id="clip0_9323_23">
<rect width="1178" height="1280" fill="white"/>
</clipPath>
</defs>
</svg>
