<svg width="2667" height="1280" viewBox="0 0 2667 1280" fill="none" xmlns="http://www.w3.org/2000/svg">
<rect x="4.5" y="4.5" width="2658" height="1271" fill="white"/>
<rect x="4.5" y="4.5" width="2658" height="1271" stroke="#213371" stroke-width="9"/>
<path d="M290.701 269L639.5 567.5L359 915.5L290.336 996.165H388.348L646.348 675.103L886.993 882.384V777L290.701 269Z" fill="#9EA1A3"/>
<path d="M886 687.5L398.5 273H291.5L637 570.5L292 996H391.5L647.5 678L886 880V687.5Z" fill="#213371" stroke="#213371" stroke-width="10" stroke-linejoin="round"/>
<path d="M292 882V993L636 567.5L291.5 273.5V370.5L535 582.5L292 882Z" fill="#9EA1A3"/>
<path d="M1032.73 1146.57C1031.33 1146.58 1029.99 1146.04 1028.99 1145.07L882.837 999.448C882.13 998.737 881.638 997.841 881.42 996.863C881.202 995.884 881.266 994.864 881.604 993.921V278.166H292.117C290.8 278.167 289.53 277.679 288.554 276.795L140.715 141.135C139.93 140.42 139.38 139.484 139.138 138.45C138.896 137.416 138.973 136.333 139.359 135.344C139.745 134.355 140.421 133.506 141.299 132.909C142.177 132.312 143.215 131.995 144.277 132H1032.73C1034.12 132 1035.46 132.553 1036.45 133.539C1037.43 134.524 1037.98 135.86 1037.98 137.253V1141.46C1037.98 1142.5 1037.68 1143.52 1037.1 1144.39C1036.52 1145.26 1035.7 1145.94 1034.74 1146.34C1034.09 1146.53 1033.41 1146.61 1032.73 1146.57ZM892.063 993.829L1027.43 1128.62V142.734H157.842L294.309 267.751H886.81C887.504 267.751 888.191 267.889 888.831 268.156C889.471 268.422 890.052 268.813 890.541 269.306C891.029 269.799 891.415 270.383 891.676 271.026C891.937 271.668 892.069 272.356 892.063 273.05V993.829Z" fill="#213371"/>
<path d="M1032.91 1141.78L955.999 1066L219.999 1069L212.499 452L211.499 233L212.999 207L145.499 145.5L144.459 1142.1H1032.91H1033.19L1032.91 1141.78Z" fill="#D63226"/>
<path d="M958.226 1067.18L883.337 997H287V602.5V500L287 275.5L221 216L217.5 1067.5H958.226H958.5L958.226 1067.18Z" fill="#1E9871"/>
<path d="M1033.19 1147.36H144.459C143.752 1147.36 143.052 1147.21 142.4 1146.94C141.748 1146.66 141.158 1146.26 140.664 1145.76C140.17 1145.25 139.783 1144.65 139.525 1143.99C139.267 1143.33 139.143 1142.63 139.161 1141.92V137.899C139.137 137.19 139.256 136.483 139.512 135.822C139.767 135.16 140.154 134.557 140.649 134.049C141.145 133.541 141.737 133.139 142.392 132.866C143.047 132.594 143.75 132.457 144.459 132.463L219.917 201.038C221.17 201.028 222.385 201.465 223.343 202.271L295.632 269.217C296.21 269.707 296.676 270.315 296.999 271C297.322 271.686 297.494 272.433 297.504 273.191L297.734 283.882L295.633 991.049H886.673C888.069 991.047 889.412 991.588 890.418 992.557L1036.57 1138.17L1036.89 1138.49C1037.69 1139.22 1038.24 1140.17 1038.48 1141.22C1038.72 1142.28 1038.62 1143.38 1038.21 1144.37C1037.81 1145.37 1037.1 1146.22 1036.19 1146.8C1035.28 1147.38 1034.22 1147.67 1033.14 1147.63L1033.19 1147.36ZM149.712 1136.8H1020.45L884.526 1001.46H290.335C288.938 1001.45 287.602 1000.89 286.619 999.896C285.635 998.903 285.083 997.562 285.083 996.165L287.184 283.608L287 275.612L217.999 212L149.94 143.426L149.712 1136.8Z" fill="#213371"/>
<path d="M959.383 1073.81H217.032C216.339 1073.82 215.651 1073.69 215.008 1073.43C214.366 1073.17 213.781 1072.78 213.289 1072.29C212.796 1071.8 212.405 1071.22 212.139 1070.58C211.872 1069.94 211.734 1069.26 211.734 1068.56V205.545C211.75 204.531 212.056 203.542 212.616 202.697C213.177 201.851 213.968 201.184 214.896 200.776C215.825 200.367 216.851 200.233 217.853 200.39C218.855 200.547 219.791 200.989 220.549 201.662L295.999 269.492C296.941 270.456 297.48 271.742 297.508 273.089C297.535 274.436 297.048 275.743 296.146 276.743C295.244 277.744 293.995 278.364 292.653 278.476C291.31 278.589 289.976 278.186 288.92 277.349L222.285 217.375V1063.26H959.383C960.697 1063.39 961.919 1063.99 962.808 1064.97C963.697 1065.95 964.19 1067.22 964.19 1068.54C964.19 1069.86 963.697 1071.13 962.808 1072.11C961.919 1073.08 960.697 1073.69 959.383 1073.81Z" fill="#213371"/>
<path d="M299.808 992.338C298.812 992.329 297.839 992.038 297 991.5C296.162 990.962 295.492 990.199 295.068 989.297C294.643 988.396 294.482 987.393 294.601 986.404C294.721 985.415 295.117 984.48 295.744 983.705L631.779 569.315L289.24 277.532C288.709 277.084 288.272 276.536 287.955 275.918C287.637 275.3 287.445 274.626 287.39 273.933C287.334 273.241 287.417 272.544 287.633 271.884C287.849 271.224 288.193 270.613 288.647 270.087C289.537 269.071 290.788 268.441 292.134 268.33C293.481 268.219 294.818 268.636 295.863 269.493L642.558 564.611C643.6 565.513 644.249 566.785 644.369 568.158C644.488 569.531 644.068 570.896 643.197 571.965L303.919 990.374C303.423 990.987 302.797 991.481 302.086 991.821C301.374 992.161 300.596 992.337 299.808 992.338Z" fill="#213371"/>
<path d="M881 694.5L393.5 280H296L632 577.5L293 996.5H389L642.5 685L881 887V694.5Z" fill="#213371" stroke="#213371" stroke-width="10" stroke-linejoin="round"/>
<path d="M1181.42 315.29V288.727H1366.88V315.29H1289.12V536H1259.18V315.29H1181.42ZM1390.94 536H1359.55L1450.35 288.727H1481.26L1572.05 536H1540.66L1466.77 327.847H1464.84L1390.94 536ZM1402.53 439.409H1529.07V465.972H1402.53V439.409ZM1607.17 536V288.727H1690.72C1710.04 288.727 1725.89 292.027 1738.29 298.628C1750.68 305.148 1759.86 314.123 1765.82 325.553C1771.77 336.982 1774.75 349.982 1774.75 364.551C1774.75 379.12 1771.77 392.039 1765.82 403.308C1759.86 414.577 1750.72 423.431 1738.41 429.871C1726.09 436.23 1710.36 439.409 1691.2 439.409H1623.59V412.364H1690.23C1703.44 412.364 1714.06 410.432 1722.11 406.568C1730.24 402.705 1736.12 397.231 1739.74 390.148C1743.44 382.984 1745.29 374.452 1745.29 364.551C1745.29 354.651 1743.44 345.998 1739.74 338.592C1736.04 331.187 1730.12 325.472 1721.99 321.447C1713.86 317.342 1703.11 315.29 1689.75 315.29H1637.11V536H1607.17ZM1723.56 424.92L1784.41 536H1749.64L1689.75 424.92H1723.56ZM1821.25 536V288.727H1851.19V509.438H1966.13V536H1821.25ZM2009.1 536V288.727H2158.33V315.29H2039.04V398.841H2150.6V425.403H2039.04V509.438H2160.26V536H2009.1ZM2223.39 288.727L2287.14 391.597H2289.07L2352.82 288.727H2388.08L2310.32 412.364L2388.08 536H2352.82L2289.07 435.062H2287.14L2223.39 536H2188.13L2267.82 412.364L2188.13 288.727H2223.39ZM1194.94 947V699.727H1224.89V920.438H1339.83V947H1194.94ZM1336.4 726.29V699.727H1521.85V726.29H1444.1V947H1414.16V726.29H1336.4ZM1640.97 947H1564.67V699.727H1644.35C1668.34 699.727 1688.87 704.678 1705.93 714.578C1723 724.398 1736.08 738.525 1745.17 756.957C1754.27 775.31 1758.81 797.284 1758.81 822.881C1758.81 848.638 1754.23 870.814 1745.05 889.408C1735.87 907.921 1722.51 922.168 1704.96 932.149C1687.42 942.05 1666.09 947 1640.97 947ZM1594.61 920.438H1639.04C1659.49 920.438 1676.43 916.493 1689.87 908.605C1703.31 900.717 1713.34 889.488 1719.94 874.919C1726.54 860.35 1729.84 843.004 1729.84 822.881C1729.84 802.919 1726.58 785.733 1720.06 771.325C1713.54 756.837 1703.8 745.729 1690.84 738.001C1677.88 730.194 1661.74 726.29 1642.42 726.29H1594.61V920.438Z" fill="#213371"/>
</svg>
