<svg width="2923" height="1280" viewBox="0 0 2923 1280" fill="none" xmlns="http://www.w3.org/2000/svg">
<g clip-path="url(#clip0_9323_2)">
<path d="M292.5 368V993H886.5V880.5L292.5 368Z" fill="white"/>
<path d="M1032.73 1146.57C1031.33 1146.58 1029.99 1146.04 1028.99 1145.07L882.837 999.448C882.13 998.737 881.638 997.841 881.42 996.863C881.202 995.884 881.266 994.864 881.604 993.921V278.166H292.117C290.8 278.167 289.53 277.679 288.554 276.795L140.715 141.135C139.93 140.42 139.38 139.484 139.138 138.45C138.896 137.416 138.973 136.333 139.359 135.344C139.745 134.355 140.421 133.506 141.299 132.909C142.177 132.312 143.215 131.995 144.277 132H1032.73C1034.12 132 1035.46 132.553 1036.45 133.539C1037.43 134.524 1037.98 135.86 1037.98 137.253V1141.46C1037.98 1142.5 1037.68 1143.52 1037.1 1144.39C1036.52 1145.26 1035.7 1145.94 1034.74 1146.34C1034.09 1146.53 1033.41 1146.61 1032.73 1146.57ZM892.063 993.829L1027.43 1128.62V142.734H157.842L294.309 267.751H886.81C887.504 267.751 888.191 267.889 888.831 268.156C889.471 268.422 890.052 268.813 890.541 269.306C891.029 269.799 891.415 270.383 891.676 271.026C891.937 271.668 892.069 272.356 892.063 273.05V993.829Z" fill="white"/>
<path d="M290.701 269L639.5 567.5L359 915.5L290.336 996.165H388.348L646.348 675.103L886.993 882.384V777L290.701 269Z" fill="#9EA1A3"/>
<path d="M292 882V993L636 567.5L291.5 273.5V370.5L535 582.5L292 882Z" fill="#9EA1A3"/>
<path d="M1032.92 1141.78L956 1066L220 1069L212.5 452L211.5 233L213 207L145.5 145.5L144.46 1142.1H1032.92H1033.19L1032.92 1141.78Z" fill="#D63226"/>
<path d="M958.226 1067.18L883.337 997H287V602.5V500L287 275.5L221 216L217.5 1067.5H958.226H958.5L958.226 1067.18Z" fill="#1E9871"/>
<path d="M1033.19 1147.35H144.46C143.753 1147.35 143.052 1147.21 142.4 1146.94C141.749 1146.66 141.158 1146.26 140.665 1145.75C140.171 1145.25 139.783 1144.65 139.525 1143.99C139.267 1143.33 139.144 1142.63 139.162 1141.92V137.898C139.137 137.189 139.257 136.483 139.512 135.821C139.768 135.16 140.155 134.557 140.65 134.049C141.145 133.541 141.738 133.138 142.393 132.866C143.048 132.593 143.751 132.456 144.46 132.463L219.918 201.038C221.17 201.027 222.385 201.464 223.344 202.271L295.632 269.216C296.211 269.706 296.677 270.314 297 271C297.323 271.686 297.495 272.432 297.505 273.19L297.735 283.881L295.634 991.049H886.674C888.07 991.047 889.413 991.587 890.419 992.556L1036.57 1138.17L1036.89 1138.49C1037.69 1139.22 1038.24 1140.17 1038.48 1141.22C1038.72 1142.28 1038.62 1143.38 1038.22 1144.37C1037.81 1145.37 1037.1 1146.22 1036.19 1146.8C1035.29 1147.38 1034.22 1147.67 1033.14 1147.63L1033.19 1147.35ZM149.712 1136.8H1020.45L884.527 1001.46H290.336C288.939 1001.45 287.603 1000.89 286.619 999.895C285.636 998.903 285.084 997.562 285.084 996.165L287.185 283.607L287 275.611L218 212L149.941 143.425L149.712 1136.8Z" fill="white"/>
<path d="M959.383 1073.81H217.033C216.339 1073.82 215.651 1073.69 215.009 1073.43C214.366 1073.17 213.782 1072.78 213.289 1072.29C212.797 1071.8 212.406 1071.22 212.139 1070.58C211.872 1069.94 211.735 1069.26 211.735 1068.56V205.545C211.75 204.531 212.056 203.543 212.617 202.697C213.177 201.852 213.968 201.185 214.897 200.776C215.825 200.367 216.851 200.233 217.853 200.391C218.855 200.548 219.791 200.989 220.549 201.663L295.999 269.493C296.941 270.456 297.481 271.742 297.508 273.089C297.535 274.436 297.049 275.743 296.147 276.744C295.245 277.745 293.996 278.364 292.653 278.477C291.311 278.589 289.976 278.186 288.92 277.349L222.285 217.376V1063.26H959.383C960.698 1063.39 961.919 1063.99 962.808 1064.97C963.697 1065.95 964.19 1067.22 964.19 1068.54C964.19 1069.86 963.697 1071.13 962.808 1072.11C961.919 1073.08 960.698 1073.69 959.383 1073.81Z" fill="white"/>
<path d="M290.336 1001.46C289.34 1001.45 288.367 1001.16 287.528 1000.62C286.69 1000.09 286.02 999.323 285.595 998.422C285.171 997.521 285.009 996.518 285.129 995.529C285.248 994.54 285.644 993.604 286.271 992.83L631.779 569.315L289.24 277.532C288.709 277.084 288.272 276.536 287.954 275.918C287.636 275.3 287.444 274.626 287.389 273.933C287.334 273.241 287.417 272.544 287.632 271.884C287.848 271.224 288.193 270.613 288.646 270.087C289.537 269.071 290.788 268.441 292.134 268.33C293.481 268.219 294.817 268.636 295.862 269.493L642.557 564.61C643.599 565.512 644.249 566.785 644.368 568.158C644.488 569.531 644.067 570.896 643.197 571.964L294.446 999.499C293.95 1000.11 293.324 1000.61 292.613 1000.95C291.902 1001.29 291.124 1001.46 290.336 1001.46Z" fill="white"/>
<path d="M886 687.5L398.5 273H291.5L637 570.5L292 996H391.5L647.5 678L886 880V687.5Z" fill="#213371" stroke="white" stroke-width="10" stroke-linejoin="round"/>
<path d="M1187.87 302.011V281.727H1367.17V302.011H1288.81V529H1266.23V302.011H1187.87ZM1386.07 529H1362.41L1452.36 281.727H1476.51L1566.46 529H1542.79L1465.28 311.067H1463.59L1386.07 529ZM1403.1 434.22H1525.77V454.504H1403.1V434.22ZM1605.44 529V281.727H1685.24C1702.79 281.727 1717.44 285.108 1729.19 291.869C1741.02 298.55 1749.92 307.646 1755.88 319.156C1761.91 330.667 1764.93 343.626 1764.93 358.034C1764.93 372.442 1761.95 385.442 1756 397.033C1750.04 408.543 1741.19 417.679 1729.43 424.44C1717.68 431.121 1703.07 434.462 1685.61 434.462H1622.82V414.178H1685C1697.96 414.178 1708.71 411.763 1717.24 406.933C1725.77 402.023 1732.13 395.342 1736.32 386.891C1740.58 378.439 1742.72 368.82 1742.72 358.034C1742.72 347.248 1740.58 337.629 1736.32 329.178C1732.13 320.726 1725.73 314.085 1717.12 309.256C1708.59 304.426 1697.76 302.011 1684.64 302.011H1628.01V529H1605.44ZM1791.23 529V508.112H1797.75C1807.98 508.112 1816.06 504.732 1822.02 497.97C1827.98 491.128 1832.36 480.181 1835.18 465.129C1838 450.077 1839.85 430.276 1840.74 405.726L1845.08 281.727H1990.21V529H1967.63V302.011H1866.57L1862.59 410.676C1861.62 436.836 1859.21 458.69 1855.35 476.237C1851.48 493.704 1845.04 506.865 1836.03 515.719C1827.09 524.573 1814.45 529 1798.11 529H1791.23ZM2052.52 529V281.727H2195.96V302.011H2075.1V395.101H2188.35V415.385H2075.1V508.716H2198.37V529H2052.52ZM2394.31 529L2309.19 412.366H2273.58V529H2251V281.727H2273.58V392.203H2295.91L2387.07 281.727H2413.87L2322.23 393.169L2421.36 529H2394.31ZM2641.81 359H2619.11C2617.42 350.548 2614.36 342.741 2609.93 335.577C2605.59 328.332 2600.11 322.014 2593.51 316.621C2586.91 311.228 2579.43 307.042 2571.06 304.064C2562.68 301.086 2553.63 299.597 2543.89 299.597C2528.27 299.597 2514.03 303.661 2501.15 311.791C2488.35 319.921 2478.09 331.874 2470.36 347.651C2462.71 363.347 2458.89 382.584 2458.89 405.364C2458.89 428.304 2462.71 447.622 2470.36 463.318C2478.09 479.014 2488.35 490.927 2501.15 499.057C2514.03 507.106 2528.27 511.131 2543.89 511.131C2553.63 511.131 2562.68 509.642 2571.06 506.663C2579.43 503.685 2586.91 499.54 2593.51 494.227C2600.11 488.834 2605.59 482.516 2609.93 475.271C2614.36 468.027 2617.42 460.179 2619.11 451.727H2641.81C2639.8 463.077 2636.01 473.661 2630.46 483.482C2624.99 493.221 2617.98 501.753 2609.45 509.078C2601 516.403 2591.26 522.118 2580.23 526.223C2569.2 530.328 2557.09 532.381 2543.89 532.381C2523.12 532.381 2504.69 527.189 2488.59 516.805C2472.49 506.341 2459.86 491.611 2450.68 472.615C2441.58 453.619 2437.04 431.202 2437.04 405.364C2437.04 379.526 2441.58 357.108 2450.68 338.112C2459.86 319.116 2472.49 304.426 2488.59 294.043C2504.69 283.579 2523.12 278.347 2543.89 278.347C2557.09 278.347 2569.2 280.399 2580.23 284.504C2591.26 288.529 2601 294.244 2609.45 301.649C2617.98 308.974 2624.99 317.506 2630.46 327.246C2636.01 336.985 2639.8 347.57 2641.81 359ZM1405.56 816.364C1405.56 842.121 1400.97 864.538 1391.8 883.615C1382.62 902.611 1369.98 917.341 1353.88 927.805C1337.87 938.189 1319.43 943.381 1298.59 943.381C1277.74 943.381 1259.27 938.189 1243.17 927.805C1227.15 917.341 1214.55 902.611 1205.38 883.615C1196.28 864.538 1191.73 842.121 1191.73 816.364C1191.73 790.606 1196.28 768.229 1205.38 749.233C1214.55 730.156 1227.19 715.426 1243.29 705.043C1259.39 694.579 1277.82 689.347 1298.59 689.347C1319.43 689.347 1337.87 694.579 1353.88 705.043C1369.98 715.426 1382.62 730.156 1391.8 749.233C1400.97 768.229 1405.56 790.606 1405.56 816.364ZM1383.59 816.364C1383.59 794.228 1379.88 775.272 1372.48 759.496C1365.07 743.639 1354.97 731.525 1342.17 723.153C1329.38 714.782 1314.85 710.597 1298.59 710.597C1282.41 710.597 1267.92 714.782 1255.12 723.153C1242.32 731.525 1232.18 743.598 1224.69 759.375C1217.29 775.152 1213.59 794.148 1213.59 816.364C1213.59 838.499 1217.29 857.455 1224.69 873.232C1232.1 889.008 1242.2 901.122 1255 909.574C1267.8 917.945 1282.33 922.131 1298.59 922.131C1314.85 922.131 1329.38 917.945 1342.17 909.574C1355.05 901.203 1365.19 889.129 1372.6 873.352C1380 857.495 1383.67 838.499 1383.59 816.364ZM1659.49 816.364C1659.49 842.121 1654.9 864.538 1645.72 883.615C1636.54 902.611 1623.91 917.341 1607.81 927.805C1591.79 938.189 1573.36 943.381 1552.51 943.381C1531.66 943.381 1513.19 938.189 1497.09 927.805C1481.07 917.341 1468.48 902.611 1459.3 883.615C1450.21 864.538 1445.66 842.121 1445.66 816.364C1445.66 790.606 1450.21 768.229 1459.3 749.233C1468.48 730.156 1481.11 715.426 1497.21 705.043C1513.31 694.579 1531.74 689.347 1552.51 689.347C1573.36 689.347 1591.79 694.579 1607.81 705.043C1623.91 715.426 1636.54 730.156 1645.72 749.233C1654.9 768.229 1659.49 790.606 1659.49 816.364ZM1637.51 816.364C1637.51 794.228 1633.81 775.272 1626.4 759.496C1619 743.639 1608.9 731.525 1596.1 723.153C1583.3 714.782 1568.77 710.597 1552.51 710.597C1536.33 710.597 1521.84 714.782 1509.04 723.153C1496.25 731.525 1486.1 743.598 1478.62 759.375C1471.21 775.152 1467.51 794.148 1467.51 816.364C1467.51 838.499 1471.21 857.455 1478.62 873.232C1486.02 889.008 1496.13 901.122 1508.92 909.574C1521.72 917.945 1536.25 922.131 1552.51 922.131C1568.77 922.131 1583.3 917.945 1596.1 909.574C1608.98 901.203 1619.12 889.129 1626.52 873.352C1633.93 857.495 1637.59 838.499 1637.51 816.364ZM1687.39 1000.01V919.716H1703.08C1708.8 913.759 1714.07 905.911 1718.9 896.172C1723.73 886.352 1727.75 873.714 1730.97 858.26C1734.27 842.725 1736.41 823.326 1737.37 800.064L1742.32 692.727H1883.71V919.716H1912.69V999.403H1891.19V940H1708.88V1000.01H1687.39ZM1730.13 919.716H1862.22V713.011H1762.85L1758.98 800.064C1758.1 818.98 1756.45 835.843 1754.03 850.653C1751.62 865.384 1748.4 878.464 1744.38 889.893C1740.43 901.243 1735.68 911.184 1730.13 919.716Z" fill="white"/>
</g>
<defs>
<clipPath id="clip0_9323_2">
<rect width="2923" height="1280" fill="white"/>
</clipPath>
</defs>
</svg>
