<svg width="2667" height="1280" viewBox="0 0 2667 1280" fill="none" xmlns="http://www.w3.org/2000/svg">
<rect x="4.5" y="4.5" width="2658" height="1271" fill="white"/>
<rect x="4.5" y="4.5" width="2658" height="1271" stroke="#213371" stroke-width="9"/>
<path d="M290.701 269L639.5 567.5L359 915.5L290.336 996.165H388.348L646.348 675.103L886.993 882.384V777L290.701 269Z" fill="#9EA1A3"/>
<path d="M886 687.5L398.5 273H291.5L637 570.5L292 996H391.5L647.5 678L886 880V687.5Z" fill="#213371" stroke="#213371" stroke-width="10" stroke-linejoin="round"/>
<path d="M292 882V993L636 567.5L291.5 273.5V370.5L535 582.5L292 882Z" fill="#9EA1A3"/>
<path d="M1032.73 1146.57C1031.33 1146.58 1029.99 1146.04 1028.99 1145.07L882.837 999.448C882.13 998.737 881.638 997.841 881.42 996.863C881.202 995.884 881.266 994.864 881.604 993.921V278.166H292.117C290.8 278.167 289.53 277.679 288.554 276.795L140.715 141.135C139.93 140.42 139.38 139.484 139.138 138.45C138.896 137.416 138.973 136.333 139.359 135.344C139.745 134.355 140.421 133.506 141.299 132.909C142.177 132.312 143.215 131.995 144.277 132H1032.73C1034.12 132 1035.46 132.553 1036.45 133.539C1037.43 134.524 1037.98 135.86 1037.98 137.253V1141.46C1037.98 1142.5 1037.68 1143.52 1037.1 1144.39C1036.52 1145.26 1035.7 1145.94 1034.74 1146.34C1034.09 1146.53 1033.41 1146.61 1032.73 1146.57ZM892.063 993.829L1027.43 1128.62V142.734H157.842L294.309 267.751H886.81C887.504 267.751 888.191 267.889 888.831 268.156C889.471 268.422 890.052 268.813 890.541 269.306C891.029 269.799 891.415 270.383 891.676 271.026C891.937 271.668 892.069 272.356 892.063 273.05V993.829Z" fill="#213371"/>
<path d="M1032.92 1141.78L956 1066L220 1069L212.5 452L211.5 233L213 207L145.5 145.5L144.46 1142.1H1032.92H1033.19L1032.92 1141.78Z" fill="#D63226"/>
<path d="M958.226 1067.18L883.337 997H287V602.5V500L287 275.5L221 216L217.5 1067.5H958.226H958.5L958.226 1067.18Z" fill="#1E9871"/>
<path d="M1033.19 1147.35H144.46C143.753 1147.35 143.053 1147.21 142.401 1146.94C141.749 1146.66 141.159 1146.26 140.665 1145.75C140.171 1145.25 139.784 1144.65 139.526 1143.99C139.268 1143.33 139.144 1142.63 139.162 1141.92V137.898C139.138 137.189 139.257 136.483 139.513 135.821C139.768 135.16 140.155 134.557 140.65 134.049C141.146 133.541 141.738 133.138 142.393 132.866C143.048 132.593 143.751 132.456 144.46 132.463L219.918 201.038C221.171 201.027 222.386 201.464 223.344 202.271L295.633 269.216C296.211 269.706 296.677 270.314 297 271C297.323 271.686 297.495 272.432 297.505 273.19L297.735 283.881L295.634 991.049H886.674C888.07 991.047 889.413 991.587 890.419 992.556L1036.57 1138.17L1036.89 1138.49C1037.69 1139.22 1038.24 1140.17 1038.48 1141.22C1038.72 1142.28 1038.62 1143.38 1038.22 1144.37C1037.81 1145.37 1037.1 1146.22 1036.19 1146.8C1035.29 1147.38 1034.22 1147.67 1033.14 1147.63L1033.19 1147.35ZM149.713 1136.8H1020.45L884.527 1001.46H290.336C288.939 1001.45 287.603 1000.89 286.62 999.895C285.636 998.903 285.084 997.562 285.084 996.165L287.185 283.607L287.001 275.611L218 212L149.941 143.425L149.713 1136.8Z" fill="#213371"/>
<path d="M959.383 1073.82H217.032C216.339 1073.82 215.651 1073.69 215.008 1073.43C214.366 1073.17 213.781 1072.78 213.289 1072.29C212.796 1071.8 212.405 1071.22 212.139 1070.58C211.872 1069.94 211.734 1069.26 211.734 1068.56V205.545C211.75 204.531 212.056 203.543 212.616 202.697C213.177 201.852 213.968 201.185 214.896 200.776C215.825 200.367 216.851 200.233 217.853 200.391C218.855 200.548 219.791 200.989 220.549 201.663L295.999 269.493C296.941 270.456 297.48 271.742 297.508 273.089C297.535 274.436 297.048 275.743 296.146 276.744C295.244 277.745 293.995 278.364 292.653 278.477C291.31 278.589 289.976 278.186 288.92 277.349L222.285 217.376V1063.26H959.383C960.697 1063.39 961.919 1063.99 962.808 1064.97C963.697 1065.95 964.19 1067.22 964.19 1068.54C964.19 1069.86 963.697 1071.13 962.808 1072.11C961.919 1073.08 960.697 1073.69 959.383 1073.82Z" fill="#213371"/>
<path d="M299.808 992.338C298.812 992.329 297.839 992.038 297 991.5C296.162 990.962 295.492 990.199 295.068 989.297C294.643 988.396 294.482 987.393 294.601 986.404C294.721 985.415 295.117 984.48 295.744 983.705L631.779 569.315L289.24 277.532C288.709 277.084 288.272 276.536 287.955 275.918C287.637 275.3 287.445 274.626 287.39 273.933C287.334 273.241 287.417 272.544 287.633 271.884C287.849 271.224 288.193 270.613 288.647 270.087C289.537 269.071 290.788 268.441 292.134 268.33C293.481 268.219 294.818 268.636 295.863 269.493L642.558 564.611C643.6 565.513 644.249 566.785 644.369 568.158C644.488 569.531 644.068 570.896 643.197 571.965L303.919 990.374C303.423 990.987 302.797 991.481 302.086 991.821C301.374 992.161 300.596 992.337 299.808 992.338Z" fill="#213371"/>
<path d="M881 694.5L393.5 280H296L632 577.5L293 996.5H389L642.5 685L881 887V694.5Z" fill="#213371" stroke="#213371" stroke-width="10" stroke-linejoin="round"/>
<path d="M1182.87 309.011V288.727H1362.17V309.011H1283.81V536H1261.23V309.011H1182.87ZM1381.07 536H1357.41L1447.36 288.727H1471.51L1561.46 536H1537.79L1460.28 318.067H1458.59L1381.07 536ZM1398.1 441.22H1520.77V461.504H1398.1V441.22ZM1600.44 536V288.727H1680.24C1697.79 288.727 1712.44 291.907 1724.19 298.266C1736.02 304.544 1744.92 313.277 1750.88 324.466C1756.91 335.574 1759.93 348.332 1759.93 362.74C1759.93 377.148 1756.91 389.866 1750.88 400.893C1744.92 411.921 1736.07 420.534 1724.31 426.732C1712.56 432.929 1697.99 436.028 1680.61 436.028H1612.63V415.382H1680C1692.88 415.382 1703.59 413.249 1712.12 408.983C1720.73 404.717 1727.13 398.64 1731.32 390.751C1735.58 382.863 1737.72 373.526 1737.72 362.74C1737.72 351.954 1735.58 342.536 1731.32 334.487C1727.05 326.357 1720.61 320.079 1712 315.652C1703.47 311.225 1692.68 309.011 1679.64 309.011H1623.01V536H1600.44ZM1709.46 424.438L1770.31 536H1744.24L1683.99 424.438H1709.46ZM1811.53 536V288.727H1834.11V515.716H1951.95V536H1811.53ZM1999.38 536V288.727H2142.82V309.011H2021.96V402.101H2135.21V422.385H2021.96V515.716H2145.23V536H1999.38ZM2201.72 288.727L2270.18 396.064H2271.74L2340.2 288.727H2366.89L2287.32 412.364L2366.89 536H2340.2L2271.74 429.871H2270.18L2201.72 536H2175.03L2255.81 412.364L2175.03 288.727H2201.72ZM1197.84 947V699.727H1220.42V926.716H1338.26V947H1197.84ZM1337.85 720.011V699.727H1517.15V720.011H1438.79V947H1416.21V720.011H1337.85ZM1637.02 947H1564.58V699.727H1641.37C1664.95 699.727 1685.11 704.637 1701.86 714.457C1718.68 724.277 1731.56 738.364 1740.49 756.716C1749.43 775.068 1753.89 797.083 1753.89 822.76C1753.89 848.679 1749.31 870.935 1740.13 889.528C1731.03 908.042 1717.75 922.249 1700.29 932.149C1682.9 942.05 1661.81 947 1637.02 947ZM1587.15 926.716H1635.69C1656.94 926.716 1674.73 922.53 1689.06 914.159C1703.39 905.788 1714.13 893.835 1721.29 878.3C1728.46 862.765 1732.04 844.251 1732.04 822.76C1731.96 801.429 1728.42 783.077 1721.42 767.703C1714.49 752.329 1704.19 740.537 1690.51 732.327C1676.9 724.116 1660.08 720.011 1640.04 720.011H1587.15V926.716Z" fill="#213371"/>
</svg>
